HIERARCHY
ROOT Hips
{
	OFFSET 0.000000 0.000000 0.000000
	CHANNELS 6 Xposition Yposition Zposition Yrotation Xrotation Zrotation
	JOINT Chest
	{
		OFFSET 0.000000 -0.009281 11.569106
		CHANNELS 3 Yrotation Xrotation Zrotation
		JOINT Chest2
		{
			OFFSET -0.000000 0.016865 9.269641
			CHANNELS 3 Yrotation Xrotation Zrotation
			JOINT Chest3
			{
				OFFSET -0.000000 0.000001 8.374491
				CHANNELS 3 Yrotation Xrotation Zrotation
				JOINT Chest4
				{
					OFFSET -0.000000 0.000001 8.374493
					CHANNELS 3 Yrotation Xrotation Zrotation
					JOINT Neck
					{
						OFFSET -0.000000 0.000002 12.152554
						CHANNELS 3 Yrotation Xrotation Zrotation
						JOINT Head
						{
							OFFSET -0.000000 0.040101 7.802319
							CHANNELS 3 Yrotation Xrotation Zrotation
							End Site
							{
								OFFSET -0.000000 0.020947 14.853096
							}
						}
					}
					JOINT RightCollar
					{
						OFFSET 2.894404 0.000001 6.791374
						CHANNELS 3 Yrotation Xrotation Zrotation
						JOINT RightShoulder
						{
							OFFSET 13.574684 0.000001 0.000000
							CHANNELS 3 Yrotation Xrotation Zrotation
							JOINT RightElbow
							{
								OFFSET 23.923903 0.000002 0.000000
								CHANNELS 3 Yrotation Xrotation Zrotation
								JOINT RightWrist
								{
									OFFSET 19.846718 0.012767 0.000000
									CHANNELS 3 Yrotation Xrotation Zrotation
									End Site
									{
										OFFSET 14.973145 0.000001 0.000000
									}
								}
							}
						}
					}
					JOINT LeftCollar
					{
						OFFSET -2.894404 0.000001 6.791374
						CHANNELS 3 Yrotation Xrotation Zrotation
						JOINT LeftShoulder
						{
							OFFSET -13.574684 -0.000001 0.000000
							CHANNELS 3 Yrotation Xrotation Zrotation
							JOINT LeftElbow
							{
								OFFSET -23.923903 -0.000002 0.000000
								CHANNELS 3 Yrotation Xrotation Zrotation
								JOINT LeftWrist
								{
									OFFSET -19.846718 0.012763 0.000000
									CHANNELS 3 Yrotation Xrotation Zrotation
									End Site
									{
										OFFSET -14.973145 -0.000001 0.000000
									}
								}
							}
						}
					}
				}
			}
		}
	}
	JOINT RightHip
	{
		OFFSET 9.469263 0.004643 0.045487
		CHANNELS 3 Yrotation Xrotation Zrotation
		JOINT RightKnee
		{
			OFFSET 0.000000 0.002661 -40.478676
			CHANNELS 3 Yrotation Xrotation Zrotation
			JOINT RightAnkle
			{
				OFFSET 0.000000 0.049106 -35.224068
				CHANNELS 3 Yrotation Xrotation Zrotation
				JOINT RightToe
				{
					OFFSET -0.000001 12.539529 -6.151390
					CHANNELS 3 Yrotation Xrotation Zrotation
					End Site
					{
						OFFSET -0.000001 5.044994 -1.291870
					}
				}
			}
		}
	}
	JOINT LeftHip
	{
		OFFSET -9.469263 0.004641 0.045487
		CHANNELS 3 Yrotation Xrotation Zrotation
		JOINT LeftKnee
		{
			OFFSET 0.000000 0.002661 -40.478676
			CHANNELS 3 Yrotation Xrotation Zrotation
			JOINT LeftAnkle
			{
				OFFSET 0.000000 0.049106 -35.224068
				CHANNELS 3 Yrotation Xrotation Zrotation
				JOINT LeftToe
				{
					OFFSET -0.000001 12.539529 -6.151390
					CHANNELS 3 Yrotation Xrotation Zrotation
					End Site
					{
						OFFSET -0.000001 5.044994 -1.291870
					}
				}
			}
		}
	}
}
MOTION
Frames: 11
Frame Time: 0.016667
49.722767 -18.186216 82.783127 3.234105 0.031599 -89.555931 -0.108397 -5.131949 1.222249 -0.034016 -2.282251 0.540617 -0.034016 -2.282252 0.540617 -0.023489 -1.711722 0.405282 4.413926 -23.661179 -3.239989 7.095925 -7.704460 -4.682974 8.519531 6.653300 0.726066 40.819283 -8.771494 -14.047749 -25.956560 -66.842082 88.194811 -47.129442 40.658644 45.778342 -10.498416 6.323659 -3.079714 -39.795360 2.441291 15.889656 -24.347864 -70.360675 -38.581048 28.537041 14.680459 -69.618595 4.733673 6.854473 1.915510 5.506896 -3.676528 -7.581700 -9.525698 -1.194761 5.552030 1.319444 0.531297 -0.002455 12.343395 3.295017 -3.977087 0.301223 -24.624384 16.476894 20.940815 -6.505100 1.308577 174.047987 186.001911 176.600948 
49.636703 -17.891403 82.864830 3.314915 0.399145 -90.316746 -0.419448 -5.162978 1.320807 -0.163253 -2.319958 0.596720 -0.163253 -2.319959 0.596720 -0.120157 -1.740132 0.446859 4.171870 -23.815683 -2.856249 6.762182 -8.002864 -4.061769 8.582465 6.550086 0.745664 41.128479 -8.897679 -13.930202 -25.519354 -66.911477 87.543163 -47.253649 40.693741 45.728598 -10.400542 6.369241 -2.962471 -39.495972 2.709142 15.889035 -24.014276 -70.505038 -39.279667 28.383502 14.426975 -69.627044 4.285450 7.121894 2.042836 5.424949 -3.903681 -7.328156 -9.537425 -1.273786 5.910115 1.222418 0.465067 0.015080 13.235279 2.613213 -4.085026 0.518763 -21.562159 15.820282 20.045386 -6.380601 0.849955 175.438518 186.794609 176.690437 
49.546833 -17.577114 82.944023 3.332869 0.732916 -91.067261 -0.717404 -5.243238 1.417246 -0.282890 -2.369873 0.649941 -0.282890 -2.369873 0.649941 -0.209616 -1.777709 0.486288 3.947495 -23.930140 -2.494037 6.453243 -8.225879 -3.472964 8.639717 6.433586 0.746197 41.428311 -8.946612 -13.780690 -25.111681 -67.000857 86.930126 -47.342500 40.727663 45.694877 -10.260917 6.393190 -2.874845 -39.213086 3.035704 15.873170 -23.783134 -70.705736 -39.870335 28.246638 14.176952 -69.593159 3.875428 7.314532 2.153440 5.312481 -4.084634 -7.100940 -9.477066 -1.344280 6.267103 1.107768 0.381256 0.018840 14.206866 1.861819 -4.157416 0.468357 -18.601113 15.021309 19.054821 -6.588373 0.309232 176.568040 186.940871 176.894905 
49.473869 -17.246368 83.019806 3.267865 1.023532 -91.854426 -0.986603 -5.399548 1.544462 -0.392469 -2.427654 0.705983 -0.392469 -2.427657 0.705983 -0.291502 -1.821199 0.527848 3.744416 -24.011854 -2.163164 6.173578 -8.386837 -2.933629 8.700291 6.363257 0.751494 41.689108 -8.934193 -13.655666 -24.858743 -67.114484 86.470926 -47.415054 40.770123 45.677887 -10.124256 6.412598 -2.812715 -38.902589 3.367445 15.828683 -23.754534 -70.957838 -40.273234 28.175446 13.977569 -69.538900 3.491492 7.414682 2.272102 5.193097 -4.244287 -6.896422 -9.355368 -1.422992 6.624332 0.984853 0.315589 0.012746 15.209306 1.053646 -4.358308 0.109863 -15.974079 14.060793 18.023684 -7.212671 -0.178518 177.485006 186.453550 177.266987 
49.403698 -16.891947 83.095444 3.207343 1.301296 -92.630418 -1.230230 -5.552210 1.642696 -0.495350 -2.485771 0.754984 -0.495350 -2.485773 0.754984 -0.368382 -1.864945 0.564133 3.552048 -24.078300 -1.853553 5.907170 -8.518494 -2.429060 8.758965 6.276759 0.786257 41.909518 -8.888102 -13.501141 -24.776824 -67.201548 86.169270 -47.499144 40.825834 45.663062 -10.023325 6.422213 -2.736662 -38.576707 3.645116 15.745920 -23.757479 -71.184798 -40.642149 28.114805 13.836859 -69.474649 3.097577 7.538905 2.369608 5.081150 -4.426032 -6.693287 -9.217942 -1.483410 7.028475 0.885246 0.256994 0.014755 16.117611 0.395071 -4.793455 -0.459617 -13.837285 13.120616 17.088722 -8.239172 -0.795775 178.204171 185.424295 177.768213 
49.342098 -16.504578 83.174423 3.124986 1.559476 -93.414954 -1.445819 -5.742318 1.745898 -0.599303 -2.544190 0.790604 -0.599303 -2.544191 0.790604 -0.446111 -1.908924 0.590360 3.375258 -24.139311 -1.563829 5.663288 -8.639260 -1.955940 8.805418 6.149709 0.778773 42.110162 -8.879841 -13.214280 -24.774286 -67.242147 85.936320 -47.611364 40.897038 45.631124 -9.944358 6.444701 -2.699709 -38.261787 3.875276 15.683390 -23.695543 -71.349310 -41.058787 28.049736 13.735455 -69.430908 2.721306 7.668451 2.461739 4.939499 -4.648251 -6.388813 -9.066519 -1.552920 7.275181 0.822499 0.221193 0.017039 16.791421 -0.121586 -5.247258 -0.873404 -12.199670 12.165966 16.319950 -9.454396 -1.830454 178.708730 184.146162 178.350241 
49.277840 -16.089943 83.260155 3.121810 1.870298 -94.102774 -1.684389 -5.890308 1.768411 -0.709059 -2.597373 0.811192 -0.709059 -2.597372 0.811192 -0.528255 -1.948979 0.605275 3.216677 -24.189658 -1.298391 5.445628 -8.739418 -1.521355 8.880854 6.125376 0.734479 42.268011 -9.001062 -12.910132 -24.693541 -67.239121 85.652095 -47.706334 40.946147 45.597438 -9.852853 6.498397 -2.676258 -37.991039 4.033383 15.610609 -23.586624 -71.440008 -41.496189 27.983328 13.650512 -69.438381 2.289858 7.874141 2.447149 4.748876 -4.838288 -5.993079 -8.912317 -1.617856 7.502120 0.808995 0.164194 0.061113 17.096291 -0.390736 -5.562880 -0.968815 -10.868315 10.988968 15.839859 -10.899749 -3.264575 179.016458 182.784578 178.855648 
49.233955 -15.624990 83.353302 3.142417 2.220007 -94.723474 -1.940680 -6.039993 1.756003 -0.817702 -2.643810 0.811665 -0.817702 -2.643810 0.811666 -0.609656 -1.983952 0.605104 3.067781 -24.224550 -1.057486 5.238966 -8.809969 -1.127759 8.993169 6.228578 0.701780 42.395186 -9.185454 -12.690044 -24.548103 -67.215291 85.326528 -47.769086 40.957397 45.562447 -9.745004 6.546840 -2.659196 -37.738568 4.176022 15.510567 -23.485976 -71.538411 -41.913388 27.935665 13.577703 -69.465906 1.797079 8.077635 2.322577 4.509975 -4.984185 -5.521031 -8.682498 -1.689196 7.666473 0.788544 0.103127 0.085237 17.074575 -0.558988 -5.650131 -0.829473 -9.812055 9.488225 15.674429 -12.321619 -4.943110 179.197253 181.550977 179.282740 
49.208115 -15.121485 83.450912 3.210605 2.553317 -95.290783 -2.166907 -6.165685 1.733320 -0.915984 -2.683681 0.797944 -0.915984 -2.683681 0.797944 -0.683357 -2.013965 0.594325 2.923205 -24.240078 -0.845053 5.032842 -8.843494 -0.783449 9.109961 6.424576 0.670082 42.495221 -9.304949 -12.585663 -24.424302 -67.236580 85.066243 -47.780776 40.924352 45.552823 -9.621204 6.578088 -2.649237 -37.497981 4.318703 15.377645 -23.423364 -71.694699 -42.271901 27.907880 13.551643 -69.487216 1.263083 8.308089 2.137610 4.279214 -5.092552 -4.973599 -8.370498 -1.803460 7.831149 0.740294 0.071006 0.084481 16.832474 -0.617096 -5.687580 -0.459714 -9.118221 7.978836 15.463605 -13.670351 -6.534104 179.437648 180.471015 179.674519 
49.190907 -14.575504 83.546959 3.303329 2.831681 -95.838489 -2.341719 -6.260656 1.725889 -0.994647 -2.725554 0.785817 -0.994647 -2.725554 0.785817 -0.742340 -2.045454 0.584815 2.778655 -24.241695 -0.666695 4.818236 -8.849838 -0.499768 9.193754 6.580757 0.632089 42.591752 -9.245730 -12.548888 -24.399461 -67.319178 84.952698 -47.745143 40.867846 45.565001 -9.508371 6.645942 -2.621984 -37.264959 4.340533 15.209959 -23.478014 -71.855926 -42.486919 27.923868 13.585502 -69.479000 0.738298 8.560392 1.995066 4.072282 -5.180730 -4.382339 -8.007759 -1.972169 7.980907 0.678934 0.078390 0.057997 16.531829 -0.536209 -5.804570 -0.140375 -8.832903 7.091563 15.425350 -14.752683 -7.979149 179.641434 179.642431 179.974364 
49.167656 -14.010566 83.633194 3.405786 3.018780 -96.403551 -2.443435 -6.338191 1.748254 -1.048225 -2.776290 0.784561 -1.048225 -2.776290 0.784561 -0.782450 -2.083574 0.583542 2.625222 -24.216448 -0.513869 4.581486 -8.805046 -0.263258 9.228874 6.645033 0.620685 42.691985 -9.041187 -12.519289 -24.442213 -67.419363 84.953415 -47.714841 40.830697 45.587353 -9.414561 6.707321 -2.590892 -37.053138 4.284914 15.018850 -23.592932 -71.962655 -42.617556 27.984262 13.642551 -69.419980 0.301857 8.819310 1.972590 3.871010 -5.231540 -3.918070 -7.662033 -2.180297 8.173311 0.647664 0.114056 0.051028 16.219874 -0.354421 -5.810136 0.107170 -8.819265 6.970938 15.634016 -15.709047 -9.313427 179.799594 179.006581 180.206085 
